<?xml version="1.0" encoding="utf-8"?>
<!-- Generator: Adobe Illustrator 19.0.0, SVG Export Plug-In . SVG Version: 6.00 Build 0)  -->
<svg version="1.1" id="Layer_1" xmlns="http://www.w3.org/2000/svg" xmlns:xlink="http://www.w3.org/1999/xlink" x="0px" y="0px"
	 viewBox="0 0 60 60" style="enable-background:new 0 0 60 60;" xml:space="preserve">
<style type="text/css">
	.st0{fill:none;stroke:#000000;stroke-miterlimit:10;}
</style>
<g id="XMLID_5_">
	<g id="XMLID_1_">
		<g id="XMLID_40_">
			<path d="M19.7,16.5c-0.2-2.5,0.1-5.4,1.6-7.4c2.2-2.9,3-0.9,3.5,1.5c0.9,4.4,1.1,9.9,0,14.3c-0.6,2.5-3.5,11-6.9,8.9
				c-1.4-0.8-1.1-3.5-0.8-4.9c0.4-2.6,3.1-5.1,5.3-6.1c2.6-1.2,6.4-0.3,9,0.1c0.8,0.1,1.4-0.9,0.6-1.4c-8-5.2-17.2,1.5-16.8,10.4
				c0.1,2.7,1.1,4.3,4,4.6c3.8,0.4,5.5-4,6.8-7c2.7-6.2,3.8-17.3-0.3-23.1c-4.2-6-8,7-7.9,10.1C17.8,17.8,19.8,17.8,19.7,16.5
				L19.7,16.5z"/>
		</g>
	</g>
	<g id="XMLID_2_">
		<g id="XMLID_20_">
			<path d="M29.9,14.1c-0.4,4.9,0,9.9,0.1,14.8c0.1,4.4,0.1,8.8,1,13.1c0.3,1.2,1.8,0.8,2-0.3c1.1-8.6,0.1-19.3-1.6-27.8
				C31.2,13,30,13.3,29.9,14.1L29.9,14.1z"/>
		</g>
	</g>
	<g id="XMLID_3_">
		<g id="XMLID_27_">
			<path d="M37.9,15.6c-2.6,4-4.5,8.6-6.4,13c-0.3,0.7-0.1,1.6,0.8,1.9c2.1,0.6,4.3,1.4,6.5,1.3c0.8-0.1,1.2-1.2,0.4-1.6
				C37.2,29,35,28.6,32.9,28c0.3,0.5,0.6,1,0.9,1.6c1.8-4.5,4.1-8.8,5.8-13.3C40,15.3,38.4,14.7,37.9,15.6L37.9,15.6z"/>
		</g>
	</g>
	<path id="XMLID_4_" class="st0" d="M25.3,30.7"/>
</g>
</svg>
